<svg version="1.1" id="Layer_1" xmlns="http://www.w3.org/2000/svg" xmlns:xlink="http://www.w3.org/1999/xlink" x="0px" y="0px"
	 width="100%" viewBox="0 0 534 533" enable-background="new 0 0 534 533" xml:space="preserve">
<path fill="#000000" opacity="1.000000" stroke="none" 
	d="
M167.000000,1.000000 
	C172.354935,1.000000 177.709854,1.000000 183.532394,1.468657 
	C184.000000,57.195198 184.000000,112.453079 184.000000,167.699890 
	C239.959763,167.699890 295.351135,167.699890 351.000000,167.699890 
	C351.000000,111.933441 351.000000,56.466721 351.000000,1.000000 
	C356.354919,1.000000 361.709869,1.000000 367.532410,1.468657 
	C368.000000,57.200630 368.000000,112.463943 368.000000,168.000000 
	C424.055725,168.000000 479.527863,168.000000 535.000000,168.000000 
	C535.000000,173.354935 535.000000,178.709854 534.531372,184.532394 
	C478.804810,185.000000 423.546936,185.000000 368.300110,185.000000 
	C368.300110,240.959747 368.300110,296.351105 368.300110,352.000000 
	C424.066559,352.000000 479.533264,352.000000 535.000000,352.000000 
	C535.000000,357.354919 535.000000,362.709869 534.531372,368.532410 
	C478.799377,369.000000 423.536072,369.000000 368.000000,369.000000 
	C368.000000,424.389038 368.000000,479.194519 368.000000,534.000000 
	C362.645081,534.000000 357.290131,534.000000 351.467590,533.531372 
	C351.000000,478.471405 351.000000,423.880157 351.000000,369.300110 
	C295.040161,369.300110 239.648834,369.300110 184.000000,369.300110 
	C184.000000,424.399841 184.000000,479.199921 184.000000,534.000000 
	C178.645065,534.000000 173.290146,534.000000 167.467606,533.531372 
	C167.000000,478.466034 167.000000,423.869354 167.000000,369.000000 
	C111.277588,369.000000 56.138794,369.000000 1.000000,369.000000 
	C1.000000,363.645081 1.000000,358.290131 1.468657,352.467590 
	C56.861881,352.000000 111.786453,352.000000 166.699921,352.000000 
	C166.699921,296.040222 166.699921,240.648880 166.699921,185.000000 
	C111.266815,185.000000 56.133408,185.000000 1.000000,185.000000 
	C1.000000,179.645065 1.000000,174.290146 1.468657,168.467606 
	C56.867306,168.000000 111.797295,168.000000 167.000000,168.000000 
	C167.000000,111.944267 167.000000,56.472134 167.000000,1.000000 
M184.000000,226.500000 
	C184.000000,268.245575 184.000000,309.991119 184.000000,351.703674 
	C239.973816,351.703674 295.354401,351.703674 350.703705,351.703674 
	C350.703705,296.026245 350.703705,240.645660 350.703705,185.296234 
	C295.026306,185.296234 239.645752,185.296234 184.000000,185.296234 
	C184.000000,198.893875 184.000000,212.196945 184.000000,226.500000 
z"/>
<path fill="#FFE314" opacity="1.000000" stroke="none" 
	d="
M350.531342,1.000000 
	C351.000000,56.466721 351.000000,111.933441 351.000000,167.699890 
	C295.351135,167.699890 239.959763,167.699890 184.000000,167.699890 
	C184.000000,112.453079 184.000000,57.195198 184.000000,1.468657 
	C239.354233,1.000000 294.708466,1.000000 350.531342,1.000000 
z"/>
<path fill="#FFE314" opacity="1.000000" stroke="none" 
	d="
M535.000000,167.531342 
	C479.527863,168.000000 424.055725,168.000000 368.000000,168.000000 
	C368.000000,112.463943 368.000000,57.200630 368.000000,1.468657 
	C423.593658,1.000000 479.187347,1.000000 535.000000,1.000000 
	C535.000000,56.354034 535.000000,111.708359 535.000000,167.531342 
z"/>
<path fill="#FFE314" opacity="1.000000" stroke="none" 
	d="
M535.000000,351.531342 
	C479.533264,352.000000 424.066559,352.000000 368.300110,352.000000 
	C368.300110,296.351105 368.300110,240.959747 368.300110,185.000000 
	C423.546936,185.000000 478.804810,185.000000 534.531372,185.000000 
	C535.000000,240.354233 535.000000,295.708466 535.000000,351.531342 
z"/>
<path fill="#FFE314" opacity="1.000000" stroke="none" 
	d="
M166.531342,1.000000 
	C167.000000,56.472134 167.000000,111.944267 167.000000,168.000000 
	C111.797295,168.000000 56.867306,168.000000 1.468657,168.000000 
	C1.000000,112.406540 1.000000,56.813076 1.000000,1.000000 
	C56.020699,1.000000 111.041695,1.000000 166.531342,1.000000 
z"/>
<path fill="#FFE314" opacity="1.000000" stroke="none" 
	d="
M1.000000,185.468658 
	C56.133408,185.000000 111.266815,185.000000 166.699921,185.000000 
	C166.699921,240.648880 166.699921,296.040222 166.699921,352.000000 
	C111.786453,352.000000 56.861881,352.000000 1.468657,352.000000 
	C1.000000,296.645782 1.000000,241.291550 1.000000,185.468658 
z"/>
<path fill="#FFE314" opacity="1.000000" stroke="none" 
	d="
M184.468658,534.000000 
	C184.000000,479.199921 184.000000,424.399841 184.000000,369.300110 
	C239.648834,369.300110 295.040161,369.300110 351.000000,369.300110 
	C351.000000,423.880157 351.000000,478.471405 351.000000,533.531372 
	C295.645782,534.000000 240.291550,534.000000 184.468658,534.000000 
z"/>
<path fill="#FFE314" opacity="1.000000" stroke="none" 
	d="
M368.468658,534.000000 
	C368.000000,479.194519 368.000000,424.389038 368.000000,369.000000 
	C423.536072,369.000000 478.799377,369.000000 534.531372,369.000000 
	C535.000000,423.927460 535.000000,478.854889 535.000000,534.000000 
	C479.645966,534.000000 424.291626,534.000000 368.468658,534.000000 
z"/>
<path fill="#FFE314" opacity="1.000000" stroke="none" 
	d="
M1.000000,369.468658 
	C56.138794,369.000000 111.277588,369.000000 167.000000,369.000000 
	C167.000000,423.869354 167.000000,478.466034 167.000000,533.531372 
	C111.739883,534.000000 56.479771,534.000000 1.000000,534.000000 
	C1.000000,479.312622 1.000000,424.624969 1.000000,369.468658 
z"/>
<path fill="#FFE314" opacity="1.000000" stroke="none" 
	d="
M184.000000,226.000000 
	C184.000000,212.196945 184.000000,198.893875 184.000000,185.296234 
	C239.645752,185.296234 295.026306,185.296234 350.703705,185.296234 
	C350.703705,240.645660 350.703705,296.026245 350.703705,351.703674 
	C295.354401,351.703674 239.973816,351.703674 184.000000,351.703674 
	C184.000000,309.991119 184.000000,268.245575 184.000000,226.000000 
z"/>
</svg>